<?xml version="1.0" encoding="UTF-8"?>
<svg id="Dimensions" xmlns="http://www.w3.org/2000/svg" viewBox="0 0 152.42 59.63">
  <g id="whiteGreen">
    <g>
      <path d="M38.83,34.28h0l-8.53-13.19c-.06-.09-.15-.14-.26-.14h-3.04c-.76,0-1.37.61-1.37,1.37v18.37h4.04v-13.25c0-.09.07-.16.16-.16h0l8.53,13.27c.06.09.15.14.26.14h2.99c.76,0,1.37-.61,1.37-1.37v-18.37h-4.04v13.22c0,.06-.05.11-.11.11h0Z"/>
      <path d="M126.78,20.95h-14.84c-.76,0-1.37.61-1.37,1.37v2.42h5.76c.08,0,.15.07.15.15v15.8h2.66c.76,0,1.37-.61,1.37-1.37v-14.42c0-.08.07-.15.15-.15h5.09l1.02-3.79h0Z"/>
      <path d="M104.29,34.28h0l-8.53-13.19c-.06-.09-.15-.14-.26-.14h-3.04c-.76,0-1.37.61-1.37,1.37v18.37h4.04v-13.25c0-.09.07-.16.16-.16h0l8.53,13.27c.06.09.15.14.26.14h2.99c.76,0,1.37-.61,1.37-1.37v-18.37h-4.04v13.22c0,.06-.05.11-.11.11h0Z"/>
      <path d="M59.89,21.96l-.74,2.77h5.76c.08,0,.15.07.15.15v15.8h2.66c.76,0,1.37-.61,1.37-1.37v-14.42c0-.08.07-.15.15-.15h5.09l1.02-3.79h-14.14c-.62,0-1.17.42-1.33,1.02h0Z"/>
      <path d="M49.42,32.29h5.67l.93-3.46h-6.59c-.08,0-.15-.07-.15-.15v-3.78c0-.08.07-.15.15-.15h7.53l1.02-3.79h-11.36c-.76,0-1.37.61-1.37,1.37v18.37h10.88c.62,0,1.17-.42,1.33-1.02l.74-2.77h-8.76c-.08,0-.15-.07-.15-.15v-4.3c0-.08.07-.15.15-.15h0Z"/>
      <path d="M80.52,32.29h5.67l.93-3.46h-6.59c-.08,0-.15-.07-.15-.15v-3.78c0-.08.07-.15.15-.15h7.53l1.02-3.79h-8.97c-.62,0-1.17.42-1.33,1.02l-2.33,8.71c-.07.26-.1.52-.1.79v9.22h10.88c.62,0,1.17-.42,1.33-1.02l.74-2.77h-8.76c-.08,0-.15-.07-.15-.15v-4.3c0-.08.07-.15.15-.15h0Z"/>
    </g>
  </g>
</svg>